<svg xmlns="http://www.w3.org/2000/svg" width="16" height="22" viewBox="0 0 16 22">
  <g id="tip" transform="translate(-5 -2)">
    <path id="Vector" d="M9.5,23h7M13,3A6.839,6.839,0,0,0,6,9.667a6.411,6.411,0,0,0,1.145,3.655c1.113,1.614,1.669,2.42,1.741,2.541.643,1.072.524.694.605,1.926.009.138.009.348.009.767a1.14,1.14,0,0,0,1.167,1.111h4.667A1.14,1.14,0,0,0,16.5,18.556c0-.419,0-.629.009-.767.081-1.232-.038-.854.6-1.926.072-.121.629-.927,1.742-2.541A6.411,6.411,0,0,0,20,9.667,6.84,6.84,0,0,0,13,3Z" transform="translate(0 0)" fill="none" stroke="#262626" stroke-linecap="round" stroke-linejoin="round" stroke-width="2"/>
  </g>
</svg>
