<svg xmlns="http://www.w3.org/2000/svg" width="22" height="20" viewBox="0 0 22 20">
  <path id="print" d="M5.222,13V7.6a5.655,5.655,0,0,1,.242-2.371,2.236,2.236,0,0,1,.971-.983A5.457,5.457,0,0,1,8.778,4h8.444a5.457,5.457,0,0,1,2.342.245,2.236,2.236,0,0,1,.971.983A5.655,5.655,0,0,1,20.778,7.6V13M3,13v5.4a5.655,5.655,0,0,0,.242,2.372,2.236,2.236,0,0,0,.971.983A5.457,5.457,0,0,0,6.556,22H19.444a5.457,5.457,0,0,0,2.342-.245,2.236,2.236,0,0,0,.971-.983A5.655,5.655,0,0,0,23,18.4V13H18.917a4.694,4.694,0,0,0-1.071.062,2.211,2.211,0,0,0-.642.269,4.777,4.777,0,0,0-.8.723l-.139.141a4.777,4.777,0,0,1-.8.723,2.211,2.211,0,0,1-.642.269,4.694,4.694,0,0,1-1.071.062h-1.5a4.694,4.694,0,0,1-1.071-.062,2.21,2.21,0,0,1-.642-.269,4.776,4.776,0,0,1-.8-.723L9.6,14.054a4.776,4.776,0,0,0-.8-.723,2.209,2.209,0,0,0-.642-.269A4.694,4.694,0,0,0,7.083,13Z" transform="translate(-2 -3)" fill="none" stroke="#262626" stroke-linecap="round" stroke-linejoin="round" stroke-width="2"/>
</svg>
