<svg xmlns="http://www.w3.org/2000/svg" width="20.003" height="18" viewBox="0 0 20.003 18">
  <g id="kakao" transform="translate(-4.262 -7.555)">
    <path id="패스_8" data-name="패스 8" d="M14.309,7.555c-9.64-.049-14.11,9.82-5.343,14.2-.154.515-.99,3.314-1.023,3.534-.024.172.111.316.33.242.317-.043,3.669-2.327,4.25-2.723C26.424,24.426,29.161,8.174,14.309,7.555Z" transform="translate(0 0)" fill="#3d1d1c"/>
    <path id="패스_9" data-name="패스 9" d="M18.071,37.621a.588.588,0,0,1-1.174,0V34.134h-.916a.575.575,0,0,1,0-1.15h3.006a.575.575,0,0,1,0,1.15h-.916Z" transform="translate(-8.683 -20.127)" fill="#ffe812"/>
    <path id="패스_10" data-name="패스 10" d="M34.551,38.128c-.264.139-.773.105-.862-.178l-.291-.761h-1.79l-.291.762c-.088.283-.6.317-.861.178-.162-.075-.317-.28-.139-.834l1.4-3.7a.822.822,0,0,1,1.565,0l1.4,3.694C34.868,37.848,34.712,38.053,34.551,38.128Z" transform="translate(-20.314 -20.161)" fill="#ffe812"/>
    <path id="패스_11" data-name="패스 11" d="M54.533,38.119H52.65a.551.551,0,0,1-.563-.538V33.594a.6.6,0,0,1,1.2,0v3.449h1.248A.538.538,0,1,1,54.533,38.119Z" transform="translate(-37.389 -20.148)" fill="#ffe812"/>
    <path id="패스_12" data-name="패스 12" d="M70.523,37.677a.591.591,0,0,1-1.05.272L68.1,36.125l-.2.2V37.61a.587.587,0,0,1-1.174,0V33.594a.587.587,0,0,1,1.174,0v1.262l1.638-1.638a.55.55,0,0,1,.773.772l-1.338,1.338,1.445,1.914A.584.584,0,0,1,70.523,37.677Z" transform="translate(-48.874 -20.149)" fill="#ffe812"/>
    <path id="패스_13" data-name="패스 13" d="M37.829,41.268H39L38.415,39.6Z" transform="translate(-26.232 -25.281)" fill="#3d1d1c"/>
  </g>
</svg>
