<svg xmlns="http://www.w3.org/2000/svg" width="20" height="18" viewBox="0 0 20 18">
  <path id="star" d="M19.957,49.816a.843.843,0,0,0-.806-.551H12.776l-1.969-5.713h0a.865.865,0,0,0-1.613,0L7.223,49.265H.848a.843.843,0,0,0-.806.551.771.771,0,0,0,.307.893l5.159,3.532L3.537,59.956a.77.77,0,0,0,.311.892.886.886,0,0,0,.994,0L10,57.316l5.156,3.531a.89.89,0,0,0,1,0,.77.77,0,0,0,.309-.893l-1.971-5.713,5.16-3.532a.771.771,0,0,0,.306-.893" transform="translate(0 -43)" fill="#ffd83e" fill-rule="evenodd"/>
</svg>
