<svg xmlns="http://www.w3.org/2000/svg" width="21.987" height="21.987" viewBox="0 0 21.987 21.987">
  <path id="phone" d="M20.612,13.942l-3.43-4.109a3.742,3.742,0,0,1-.613-.921,1.694,1.694,0,0,1-.1-.693,3.745,3.745,0,0,1,.334-1.055l.8-2.005a4.049,4.049,0,0,1,.735-1.422A1.693,1.693,0,0,1,19.2,3.3a4.049,4.049,0,0,1,1.583.237L23,4.093C23,15.379,15.1,23.28,3.812,23.28l-.555-2.221a4.049,4.049,0,0,1-.237-1.583,1.693,1.693,0,0,1,.436-.854,4.049,4.049,0,0,1,1.422-.735l1.79-.716a3.818,3.818,0,0,1,1.2-.369,1.692,1.692,0,0,1,.766.157,3.819,3.819,0,0,1,.956.811L13.074,21.2" transform="translate(-2.013 -2.293)" fill="none" stroke="#262626" stroke-linecap="round" stroke-linejoin="round" stroke-width="2"/>
</svg>
