<svg xmlns="http://www.w3.org/2000/svg" width="19" height="20" viewBox="0 0 19 20">
  <path id="excel" d="M8.694,1.266A.9.9,0,0,1,9.333,1h7.238a2.721,2.721,0,0,1,2.714,2.727V8.273a.9.9,0,1,1-1.81,0V3.727a.907.907,0,0,0-.9-.909H10.238V7.364a.907.907,0,0,1-.9.909H4.81v10a.907.907,0,0,0,.9.909h.9a.909.909,0,0,1,0,1.818h-.9A2.721,2.721,0,0,1,3,18.273V7.364a.911.911,0,0,1,.265-.643Zm-2.6,5.188h2.34V4.1ZM17.476,11a.907.907,0,0,1,.9.909v5.455H21.1a.909.909,0,0,1,0,1.818H17.476a.907.907,0,0,1-.9-.909V11.909A.907.907,0,0,1,17.476,11Zm-6.5.381a.9.9,0,0,0-1.262-.211.912.912,0,0,0-.21,1.268l1.886,2.653L9.5,17.744a.912.912,0,0,0,.21,1.268.9.9,0,0,0,1.262-.211L12.5,16.655,14.026,18.8a.9.9,0,0,0,1.262.211.912.912,0,0,0,.21-1.268l-1.886-2.653L15.5,12.437a.912.912,0,0,0-.21-1.268.9.9,0,0,0-1.262.211L12.5,13.527Z" transform="translate(-3 -1)" fill="#262626" fill-rule="evenodd"/>
</svg>
