<svg xmlns="http://www.w3.org/2000/svg" width="22" height="20" viewBox="0 0 22 20">
  <path id="id-card" d="M16.333,16.765A3.3,3.3,0,0,0,13,14.647a3.3,3.3,0,0,0-3.333,2.118M11.889,3h2.222M13,10.412h.011M8.556,5.118h-2a5.776,5.776,0,0,0-2.342.231,2.173,2.173,0,0,0-.971.925A5.03,5.03,0,0,0,3,8.506v9.106a5.03,5.03,0,0,0,.242,2.232,2.173,2.173,0,0,0,.971.925A5.776,5.776,0,0,0,6.556,21H19.444a5.776,5.776,0,0,0,2.342-.231,2.172,2.172,0,0,0,.971-.925A5.03,5.03,0,0,0,23,17.612V8.506a5.03,5.03,0,0,0-.242-2.232,2.173,2.173,0,0,0-.971-.925,5.776,5.776,0,0,0-2.342-.231h-2m-3.333,5.294A1.112,1.112,0,1,1,13,9.353,1.086,1.086,0,0,1,14.111,10.412Z" transform="translate(-2 -2)" fill="none" stroke="#262626" stroke-linecap="round" stroke-linejoin="round" stroke-width="2"/>
</svg>
