<svg xmlns="http://www.w3.org/2000/svg" width="20" height="18" viewBox="0 0 20 18">
  <path id="phone" d="M17.951,13.548l-.506.479s-1.2,1.14-4.486-1.971-2.08-4.251-2.08-4.251l.319-.3a2.068,2.068,0,0,0,.174-2.81L9.97,2.91a2.38,2.38,0,0,0-3.458-.3L4.769,4.261A2.194,2.194,0,0,0,4,5.966c.1,1.68.9,5.293,5.347,9.509,4.719,4.471,9.146,4.649,10.957,4.488a2.467,2.467,0,0,0,1.472-.709l1.578-1.5a2.126,2.126,0,0,0-.6-3.446l-2.123-1.1A2.351,2.351,0,0,0,17.951,13.548Z" transform="translate(-4 -2)" fill="#3e78ff"/>
</svg>
