<svg xmlns="http://www.w3.org/2000/svg" width="22" height="21" viewBox="0 0 22 21">
  <path id="file-upload" d="M7.444,10.706V9.588a5.556,5.556,0,1,1,11.111,0v1.118A4.458,4.458,0,0,1,23,15.176a4.538,4.538,0,0,1-2.222,3.912M7.444,10.706A4.458,4.458,0,0,0,3,15.176a4.538,4.538,0,0,0,2.222,3.912m2.222-8.382a4.42,4.42,0,0,1,1.378.219M13,12.941V23m0-10.059,3.333,3.353M13,12.941,9.667,16.294" transform="translate(-2 -3)" fill="none" stroke="#262626" stroke-linecap="round" stroke-linejoin="round" stroke-width="2"/>
</svg>
