<svg xmlns="http://www.w3.org/2000/svg" width="22.009" height="17" viewBox="0 0 22.009 17">
  <g id="people" transform="translate(-30.986 -95)">
    <path id="패스_221" data-name="패스 221" d="M275.687,99.212a2.955,2.955,0,1,1-5.888,0,2.955,2.955,0,1,1,5.888,0Z" transform="translate(-227.18)" fill="none" stroke="#262626" stroke-linecap="round" stroke-linejoin="round" stroke-width="2"/>
    <path id="패스_222" data-name="패스 222" d="M198.428,304c-2.907,0-5.7,1.444-6.4,4.256a.567.567,0,0,0,.523.74h11.761a.568.568,0,0,0,.523-.74C204.131,305.4,201.335,304,198.428,304Z" transform="translate(-152.861 -197.996)" fill="none" stroke="#262626" stroke-miterlimit="10" stroke-width="2"/>
    <path id="패스_223" data-name="패스 223" d="M98.57,130.585a2.374,2.374,0,1,1-4.729,0,2.374,2.374,0,1,1,4.729,0Z" transform="translate(-59.085 -30.572)" fill="none" stroke="#262626" stroke-linecap="round" stroke-linejoin="round" stroke-width="2"/>
    <path id="패스_224" data-name="패스 224" d="M39.753,295.061a6.249,6.249,0,0,0-2.632-.511c-2.32,0-4.555,1.153-5.115,3.4a.453.453,0,0,0,.418.591h5.009" transform="translate(0 -188.968)" fill="none" stroke="#262626" stroke-linecap="round" stroke-miterlimit="10" stroke-width="2"/>
  </g>
</svg>
