<svg xmlns="http://www.w3.org/2000/svg" width="17" height="20" viewBox="0 0 17 20">
  <path id="pdf" d="M8.95,1a.84.84,0,0,0-.6.255l-5.1,5.217A.88.88,0,0,0,3,7.087V17.522A2.58,2.58,0,0,0,5.55,20.13H6.4a.87.87,0,0,0,0-1.739H5.55a.86.86,0,0,1-.85-.87V7.957H8.95a.86.86,0,0,0,.85-.87V2.739h5.95a.86.86,0,0,1,.85.87V9.7a.85.85,0,1,0,1.7,0V3.609A2.58,2.58,0,0,0,15.75,1ZM8.1,6.217H5.9L8.1,3.969Zm1.112,14.4a.992.992,0,0,0,.575.359,1.027,1.027,0,0,0,.571-.048,1.7,1.7,0,0,0,.59-.409,5.733,5.733,0,0,0,.64-.812,20.646,20.646,0,0,1,3.556-.832,18.491,18.491,0,0,1,1.948-.2c.223.269.426.5.595.675a3.083,3.083,0,0,0,.338.31,1.188,1.188,0,0,0,.274.158.875.875,0,0,0,.887-.133,2.74,2.74,0,0,0,.6-.647,1.293,1.293,0,0,0,.174-1.035,1.26,1.26,0,0,0-.638-.763,2.413,2.413,0,0,0-.713-.231,5.455,5.455,0,0,0-.71-.073c-.526-.672-1.141-1.508-1.726-2.361-.513-.748-.99-1.492-1.362-2.14.038-.167.07-.328.095-.481a4.277,4.277,0,0,0,.062-.769,1.934,1.934,0,0,0-.166-.786,1.214,1.214,0,0,0-.775-.667,1.476,1.476,0,0,0-.917.071,1.083,1.083,0,0,0-.67.786,1.663,1.663,0,0,0,.01.71,5.505,5.505,0,0,0,.481,1.249l.059.116a22.188,22.188,0,0,1-.858,2.319,27.416,27.416,0,0,1-1.661,3.294,4.123,4.123,0,0,0-.944.534,1.531,1.531,0,0,0-.512.691A1.167,1.167,0,0,0,9.211,20.62Zm1.333-.407.006-.006ZM14.9,17.158c-.692.1-1.4.239-2.08.4.3-.6.6-1.234.869-1.868.154-.36.3-.725.439-1.085.21.326.43.654.652.978.342.5.7.994,1.037,1.457C15.51,17.071,15.2,17.112,14.9,17.158ZM14.1,10.9v0S14.1,10.9,14.1,10.9Z" transform="translate(-3 -1)" fill="#262626" fill-rule="evenodd"/>
</svg>
