<svg xmlns="http://www.w3.org/2000/svg" width="22" height="18.665" viewBox="0 0 22 18.665">
  <path id="ico-twitter-1" d="M19.783,3.918a4.756,4.756,0,0,0,.791-.249,5.42,5.42,0,0,0,.876-.5A1,1,0,0,1,23,4a7.283,7.283,0,0,1-.447,2.747A5.471,5.471,0,0,1,21.482,8.42a14.469,14.469,0,0,1-2.648,8.005,11.9,11.9,0,0,1-5.758,4.146,14.656,14.656,0,0,1-6.478.656,10.766,10.766,0,0,1-5.211-1.937,1,1,0,0,1,.755-1.779,6.845,6.845,0,0,0,3.542-.527,6.192,6.192,0,0,1-.565-.349,6.487,6.487,0,0,1-2.013-2.187A1,1,0,0,1,3.4,13.2,5.089,5.089,0,0,1,1.5,9.5a1,1,0,0,1,.723-.961,7.357,7.357,0,0,1-.24-.887A9.192,9.192,0,0,1,2.03,3.757,1,1,0,0,1,3.866,3.5,9.145,9.145,0,0,0,8.781,7.186a16.318,16.318,0,0,0,2.279.645A6.771,6.771,0,0,1,12.054,4.8,4.586,4.586,0,0,1,14.74,2.847,5.982,5.982,0,0,1,19.783,3.918Zm-9.034,5.89a18.334,18.334,0,0,1-2.654-.744A12.965,12.965,0,0,1,3.841,6.6c.024.221.057.439.1.652A2.631,2.631,0,0,0,4.947,9.105a1,1,0,0,1,.491,1.241c-.24.648-.87.7-1.442.558a3.827,3.827,0,0,0,2.669,1.609A1,1,0,0,1,6.7,14.481l-.87.174a4.988,4.988,0,0,0,.431.336,2.528,2.528,0,0,0,2,.54,1,1,0,0,1,.883,1.738,10.15,10.15,0,0,1-2.15,1.323,11.041,11.041,0,0,1-1.179.479c.33.07.674.128,1.029.172a12.658,12.658,0,0,0,5.584-.562,9.9,9.9,0,0,0,4.8-3.448A12.67,12.67,0,0,0,19.5,7.963a1,1,0,0,1,.292-.67,3.785,3.785,0,0,0,1-1.579,10.092,10.092,0,0,1-1.109.268,1,1,0,0,1-.895-.275,3.951,3.951,0,0,0-3.533-.929A2.587,2.587,0,0,0,13.727,5.9,5.605,5.605,0,0,0,13,9a1,1,0,0,1-.33.742C12.172,10.192,11.334,9.926,10.748,9.808Z" transform="translate(-1 -2.671)" fill="#262626" fill-rule="evenodd"/>
</svg>
