<svg xmlns="http://www.w3.org/2000/svg" xmlns:xlink="http://www.w3.org/1999/xlink" width="20" height="18" viewBox="0 0 20 18">
  <defs>
    <clipPath id="clip-path">
      <rect id="사각형_207" data-name="사각형 207" width="20" height="18" fill="none"/>
    </clipPath>
  </defs>
  <g id="rainy" clip-path="url(#clip-path)">
    <path id="패스_429" data-name="패스 429" d="M17.69,7.115l-.029,0a3.276,3.276,0,0,0,.286-1.34A3.437,3.437,0,0,0,14.457,2.4a3.552,3.552,0,0,0-1.852.519A4.859,4.859,0,0,0,8.113,0,4.782,4.782,0,0,0,3.256,4.7a4.6,4.6,0,0,0,.04.579l-.04,0A3.206,3.206,0,0,0,0,8.435a3.206,3.206,0,0,0,3.256,3.154H17.69a2.238,2.238,0,1,0,0-4.473" fill="#ececec"/>
    <path id="패스_430" data-name="패스 430" d="M30.711,120.681a1.664,1.664,0,0,1-2.188.743,1.566,1.566,0,0,1-.767-2.119c.392-.79,2.929-2.237,2.929-2.237s.418,2.822.026,3.613" transform="translate(-24.311 -103.581)" fill="#b9d7ff"/>
    <path id="패스_431" data-name="패스 431" d="M64.987,120.681a1.664,1.664,0,0,1-2.188.743,1.566,1.566,0,0,1-.767-2.119c.392-.79,2.929-2.237,2.929-2.237s.418,2.822.026,3.613" transform="translate(-54.51 -103.581)" fill="#b9d7ff"/>
    <path id="패스_432" data-name="패스 432" d="M99.746,120.681a1.664,1.664,0,0,1-2.188.743,1.566,1.566,0,0,1-.767-2.119c.392-.79,2.929-2.237,2.929-2.237s.418,2.822.026,3.613" transform="translate(-85.134 -103.581)" fill="#b9d7ff"/>
  </g>
</svg>
