<svg xmlns="http://www.w3.org/2000/svg" width="22.773" height="22.36" viewBox="0 0 22.773 22.36">
  <path id="image" d="M16.83,18.922l-2.085-2.068a6.236,6.236,0,0,0-2.087-1.679,2.5,2.5,0,0,0-1.558.017c-.573.195-1.065.7-2.05,1.724l-5,4.934M16.83,18.922l.427-.423a6.24,6.24,0,0,1,2.089-1.681,2.5,2.5,0,0,1,1.559.018c.574.2,1.066.707,2.05,1.728L24,19.617m-7.17-.695,5.014,5.024m0,0A16.991,16.991,0,0,1,20,24H8a6.21,6.21,0,0,1-2.635-.273,2.5,2.5,0,0,1-1.093-1.092,2.307,2.307,0,0,1-.217-.785m17.789,2.1a2.313,2.313,0,0,0,.791-.218,2.5,2.5,0,0,0,1.092-1.092A6.211,6.211,0,0,0,24,20v-.383M4.055,21.85A16.862,16.862,0,0,1,4,20V8a6.211,6.211,0,0,1,.272-2.635A2.5,2.5,0,0,1,5.365,4.272,6.211,6.211,0,0,1,8,4H20a6.211,6.211,0,0,1,2.635.272,2.5,2.5,0,0,1,1.092,1.093A6.211,6.211,0,0,1,24,8V19.617M20.25,10.25a2.5,2.5,0,1,1-2.5-2.5A2.5,2.5,0,0,1,20.25,10.25Z" transform="translate(-2.641 -3)" fill="none" stroke="#262626" stroke-linecap="round" stroke-linejoin="round" stroke-width="2"/>
</svg>
