<svg xmlns="http://www.w3.org/2000/svg" width="22" height="22" viewBox="0 0 22 22">
  <g id="save" transform="translate(-2 -2)">
    <path id="Vector" d="M18.556,23H7.444m11.111,0h.892a5.508,5.508,0,0,0,2.338-.242,2.224,2.224,0,0,0,.972-.971A5.512,5.512,0,0,0,23,19.448V9.911a4.678,4.678,0,0,0-.053-.987,2.215,2.215,0,0,0-.232-.606A4.613,4.613,0,0,0,22.1,7.56l-3.061-3.4a4.666,4.666,0,0,0-.8-.787,2.221,2.221,0,0,0-.677-.3A4.785,4.785,0,0,0,16.417,3H6.556a5.523,5.523,0,0,0-2.343.242,2.221,2.221,0,0,0-.971.971A5.523,5.523,0,0,0,3,6.556V19.445a5.516,5.516,0,0,0,.242,2.341,2.223,2.223,0,0,0,.971.972A5.513,5.513,0,0,0,6.552,23h.892m11.111,0V18.774a5.513,5.513,0,0,0-.242-2.339,2.223,2.223,0,0,0-.972-.971A5.516,5.516,0,0,0,15,15.222H11a5.523,5.523,0,0,0-2.343.242,2.221,2.221,0,0,0-.971.971,5.523,5.523,0,0,0-.242,2.343V23M16.333,7.444H9.667" transform="translate(0 0)" fill="none" stroke="#262626" stroke-linecap="round" stroke-linejoin="round" stroke-width="2"/>
  </g>
</svg>
