<svg xmlns="http://www.w3.org/2000/svg" width="20" height="20" viewBox="0 0 20 20">
  <path id="moon" d="M3.246,10.813a8.322,8.322,0,0,0,15.472,4.245,9.266,9.266,0,0,1-9.385-2.017A9.1,9.1,0,0,1,7.378,3.668,8.388,8.388,0,0,0,3.246,10.813Zm16.444,1.8c.763-.446,1.912.059,1.676.91A10.171,10.171,0,0,1,1.4,10.813,10.278,10.278,0,0,1,8.994,1c.854-.229,1.34.917.877,1.67a7.478,7.478,0,0,0,.77,9.068A7.615,7.615,0,0,0,19.69,12.616Z" transform="translate(-1.397 -0.968)" fill="#262626" fill-rule="evenodd"/>
</svg>
