<svg xmlns="http://www.w3.org/2000/svg" xmlns:xlink="http://www.w3.org/1999/xlink" width="20" height="20" viewBox="0 0 20 20">
  <defs>
    <clipPath id="clip-path">
      <rect id="사각형_206" data-name="사각형 206" width="20" height="20" fill="none"/>
    </clipPath>
  </defs>
  <g id="sun" clip-path="url(#clip-path)">
    <path id="패스_420" data-name="패스 420" d="M53.246,49.2A4.044,4.044,0,1,1,49.2,45.157,4.044,4.044,0,0,1,53.246,49.2" transform="translate(-39.201 -39.201)" fill="#f8ca4d"/>
    <path id="패스_421" data-name="패스 421" d="M72.633,4.419h0a.485.485,0,0,1-.485-.485V.485a.485.485,0,1,1,.97,0V3.934a.485.485,0,0,1-.485.485" transform="translate(-62.633)" fill="#f8ca4d"/>
    <path id="패스_422" data-name="패스 422" d="M72.633,122.559h0a.485.485,0,0,1-.485-.485v-3.449a.485.485,0,1,1,.97,0v3.449a.485.485,0,0,1-.485.485" transform="translate(-62.633 -102.559)" fill="#f8ca4d"/>
    <path id="패스_423" data-name="패스 423" d="M104.811,24.4h0a.485.485,0,0,1,0-.686l2.439-2.439a.485.485,0,0,1,.686.686L105.5,24.4a.485.485,0,0,1-.686,0" transform="translate(-90.865 -18.345)" fill="#f8ca4d"/>
    <path id="패스_424" data-name="패스 424" d="M21.273,107.936h0a.485.485,0,0,1,0-.686l2.439-2.439a.485.485,0,1,1,.686.686l-2.439,2.439a.485.485,0,0,1-.686,0" transform="translate(-18.344 -90.865)" fill="#f8ca4d"/>
    <path id="패스_425" data-name="패스 425" d="M118.141,72.632h0a.485.485,0,0,1,.485-.485h3.449a.485.485,0,0,1,0,.97h-3.449a.485.485,0,0,1-.485-.485" transform="translate(-102.56 -62.632)" fill="#f8ca4d"/>
    <path id="패스_426" data-name="패스 426" d="M0,72.632H0a.485.485,0,0,1,.485-.485H3.934a.485.485,0,1,1,0,.97H.485A.485.485,0,0,1,0,72.632" transform="translate(0 -62.632)" fill="#f8ca4d"/>
    <path id="패스_427" data-name="패스 427" d="M104.811,104.811h0a.485.485,0,0,1,.686,0l2.439,2.439a.485.485,0,0,1-.686.686l-2.439-2.439a.485.485,0,0,1,0-.686" transform="translate(-90.865 -90.865)" fill="#f8ca4d"/>
    <path id="패스_428" data-name="패스 428" d="M21.273,21.273h0a.485.485,0,0,1,.686,0L24.4,23.712a.485.485,0,0,1-.686.686l-2.439-2.439a.485.485,0,0,1,0-.686" transform="translate(-18.344 -18.344)" fill="#f8ca4d"/>
  </g>
</svg>
