<svg xmlns="http://www.w3.org/2000/svg" width="22" height="22" viewBox="0 0 22 22">
  <path id="document1" d="M23.775,16.5H18.5a3.105,3.105,0,0,0-1.317.136,1.249,1.249,0,0,0-.546.546A3.105,3.105,0,0,0,16.5,18.5v5.275M24,14.909V8a6.211,6.211,0,0,0-.273-2.635,2.5,2.5,0,0,0-1.092-1.093A6.211,6.211,0,0,0,20,4H8a6.211,6.211,0,0,0-2.635.272A2.5,2.5,0,0,0,4.272,5.365,6.211,6.211,0,0,0,4,8V20a6.211,6.211,0,0,0,.272,2.635,2.5,2.5,0,0,0,1.093,1.092A6.211,6.211,0,0,0,8,24h7.187a5.362,5.362,0,0,0,1.25-.074,2.5,2.5,0,0,0,.744-.32,5.365,5.365,0,0,0,.913-.858l4.813-5.091a5.339,5.339,0,0,0,.75-.887,2.5,2.5,0,0,0,.279-.7A5.333,5.333,0,0,0,24,14.909Z" transform="translate(-3 -3)" fill="none" stroke="#262626" stroke-linecap="round" stroke-linejoin="round" stroke-width="2"/>
</svg>
