<svg xmlns="http://www.w3.org/2000/svg" width="22.008" height="22.008" viewBox="0 0 22.008 22.008">
  <g id="pie1" transform="translate(-2 -2.172)">
    <path id="패스_173" data-name="패스 173" d="M20.958,13.079a1.906,1.906,0,0,1,2,2.227A10.1,10.1,0,1,1,10.874,3.224a1.906,1.906,0,0,1,2.227,2v5.612a2.245,2.245,0,0,0,2.245,2.245Z" transform="translate(0 0)" fill="none" stroke="#262626" stroke-width="2"/>
    <path id="패스_174" data-name="패스 174" d="M21.376,7.507a6.764,6.764,0,0,0-4.168-4.168A1.766,1.766,0,0,0,15,5.218V7.466a2.249,2.249,0,0,0,2.249,2.249H19.5A1.766,1.766,0,0,0,21.376,7.507Z" transform="translate(1.457 0.009)" fill="none" stroke="#262626" stroke-width="2"/>
  </g>
</svg>
