<svg xmlns="http://www.w3.org/2000/svg" width="20" height="20" viewBox="0 0 20 20">
  <g id="google" transform="translate(-4 -4)">
    <path id="패스_4" data-name="패스 4" d="M23.806,12.042H23V12H14v4h5.652a6,6,0,1,1-1.671-6.48l2.829-2.828A9.99,9.99,0,1,0,24,14,10.068,10.068,0,0,0,23.806,12.042Z" fill="#ffc107"/>
    <path id="패스_5" data-name="패스 5" d="M6.306,9.345l3.286,2.41a5.988,5.988,0,0,1,9.542-2.235l2.829-2.828A9.98,9.98,0,0,0,6.306,9.345Z" transform="translate(-1.153)" fill="#ff3d00"/>
    <path id="패스_6" data-name="패스 6" d="M15.1,36.027a9.953,9.953,0,0,0,6.7-2.6l-3.1-2.619a5.984,5.984,0,0,1-9.251-2.758L6.195,30.566A9.992,9.992,0,0,0,15.1,36.027Z" transform="translate(-1.097 -12.027)" fill="#4caf50"/>
    <path id="패스_7" data-name="패스 7" d="M33.806,20.042H33V20H24v4h5.652a6.02,6.02,0,0,1-2.044,2.785h0L30.7,29.4A9.673,9.673,0,0,0,34,22,10.068,10.068,0,0,0,33.806,20.042Z" transform="translate(-10 -8)" fill="#1976d2"/>
  </g>
</svg>
