<svg xmlns="http://www.w3.org/2000/svg" width="17" height="20" viewBox="0 0 17 20">
  <path id="powerpoint" d="M9.263,1a.888.888,0,0,0-.633.266L3.262,6.721A.917.917,0,0,0,3,7.364V18.273A2.706,2.706,0,0,0,5.684,21h4.474a.909.909,0,0,0,0-1.818H5.684a.9.9,0,0,1-.895-.909v-10H9.263a.9.9,0,0,0,.895-.909V2.818h6.263a.9.9,0,0,1,.895.909V8.273a.895.895,0,1,0,1.789,0V3.727A2.706,2.706,0,0,0,16.421,1ZM8.368,6.455H6.055L8.368,4.1ZM13.737,11a.9.9,0,0,0-.895.909v6.364a.895.895,0,1,0,1.789,0V16.455h2.684a2.728,2.728,0,0,0,0-5.455Zm3.579,3.636H14.632V12.818h2.684a.909.909,0,0,1,0,1.818Z" transform="translate(-3 -1)" fill-rule="evenodd"/>
</svg>
