<svg xmlns="http://www.w3.org/2000/svg" width="22" height="22" viewBox="0 0 22 22">
  <path id="organization" d="M11.889,19.667a5.544,5.544,0,0,0,.169,1.962,2.223,2.223,0,0,0,1.2,1.2A5.544,5.544,0,0,0,15.222,23h4.444a5.544,5.544,0,0,0,1.962-.169,2.223,2.223,0,0,0,1.2-1.2A5.544,5.544,0,0,0,23,19.667a5.544,5.544,0,0,0-.169-1.962,2.223,2.223,0,0,0-1.2-1.2,5.544,5.544,0,0,0-1.962-.169H15.222a5.544,5.544,0,0,0-1.962.169,2.223,2.223,0,0,0-1.2,1.2A5.544,5.544,0,0,0,11.889,19.667Zm0,0h-2a5.52,5.52,0,0,1-2.342-.242,2.222,2.222,0,0,1-.971-.971,5.521,5.521,0,0,1-.242-2.342V9.667m0,0H19.667A5.542,5.542,0,0,0,21.628,9.5a2.223,2.223,0,0,0,1.2-1.2A5.543,5.543,0,0,0,23,6.333a5.543,5.543,0,0,0-.169-1.962,2.223,2.223,0,0,0-1.2-1.2A5.542,5.542,0,0,0,19.667,3H6.333a5.542,5.542,0,0,0-1.962.169,2.222,2.222,0,0,0-1.2,1.2A5.542,5.542,0,0,0,3,6.333a5.542,5.542,0,0,0,.169,1.962,2.222,2.222,0,0,0,1.2,1.2A5.542,5.542,0,0,0,6.333,9.667Z" transform="translate(-2 -2)" fill="none" stroke="#262626" stroke-linecap="round" stroke-linejoin="round" stroke-width="2"/>
</svg>
