<svg xmlns="http://www.w3.org/2000/svg" width="22.001" height="22.001" viewBox="0 0 22.001 22.001">
  <path id="ico-alarm" d="M9.9,23h6.964M20.349,9.222a5.906,5.906,0,0,0-2.04-4.4,7.564,7.564,0,0,0-9.849,0,5.906,5.906,0,0,0-2.04,4.4,11.9,11.9,0,0,1-1.709,6.541,10.812,10.812,0,0,0-1.326,2.286.44.44,0,0,0,.234.4,9.04,9.04,0,0,0,2.345.109H20.806a9.04,9.04,0,0,0,2.345-.109.44.44,0,0,0,.234-.4,10.82,10.82,0,0,0-1.326-2.286,11.9,11.9,0,0,1-1.71-6.541Z" transform="translate(-2.385 -1.999)" fill="none" stroke="#fff" stroke-linecap="round" stroke-linejoin="round" stroke-width="2"/>
</svg>
