<svg xmlns="http://www.w3.org/2000/svg" xmlns:xlink="http://www.w3.org/1999/xlink" width="18" height="20" viewBox="0 0 18 20">
  <defs>
    <clipPath id="clip-path">
      <rect id="사각형_208" data-name="사각형 208" width="18" height="20" fill="none"/>
    </clipPath>
  </defs>
  <g id="snow" clip-path="url(#clip-path)">
    <path id="패스_433" data-name="패스 433" d="M15.921,6.809l-.026,0a3.3,3.3,0,0,0,.258-1.282,3.189,3.189,0,0,0-3.142-3.235,3.056,3.056,0,0,0-1.667.5A4.373,4.373,0,0,0,7.3,0,4.438,4.438,0,0,0,2.931,4.5a4.677,4.677,0,0,0,.036.554l-.036,0A2.975,2.975,0,0,0,0,8.071a2.975,2.975,0,0,0,2.931,3.018H15.921a2.141,2.141,0,0,0,0-4.281" fill="#ececec"/>
    <path id="패스_434" data-name="패스 434" d="M41.8,121.95a.642.642,0,1,1-.642-.661.651.651,0,0,1,.642.661" transform="translate(-36.182 -107.918)" fill="#ececec"/>
    <path id="패스_435" data-name="패스 435" d="M79.359,121.95a.642.642,0,1,1-.642-.661.651.651,0,0,1,.642.661" transform="translate(-69.718 -107.918)" fill="#ececec"/>
    <path id="패스_436" data-name="패스 436" d="M79.359,170.094a.642.642,0,1,1-.642-.661.651.651,0,0,1,.642.661" transform="translate(-69.718 -150.754)" fill="#ececec"/>
    <path id="패스_437" data-name="패스 437" d="M59.383,145.523a.642.642,0,1,1-.642-.661.651.651,0,0,1,.642.661" transform="translate(-51.88 -128.892)" fill="#ececec"/>
    <path id="패스_438" data-name="패스 438" d="M99.735,145.523a.642.642,0,1,1-.642-.661.651.651,0,0,1,.642.661" transform="translate(-87.912 -128.892)" fill="#ececec"/>
    <path id="패스_439" data-name="패스 439" d="M116.915,121.95a.642.642,0,1,1-.642-.661.651.651,0,0,1,.642.661" transform="translate(-103.253 -107.918)" fill="#ececec"/>
  </g>
</svg>
