<svg xmlns="http://www.w3.org/2000/svg" xmlns:xlink="http://www.w3.org/1999/xlink" width="20" height="10" viewBox="0 0 20 10">
  <defs>
    <clipPath id="clip-path">
      <rect id="사각형_210" data-name="사각형 210" width="20" height="10" fill="none"/>
    </clipPath>
  </defs>
  <g id="windy" clip-path="url(#clip-path)">
    <path id="패스_442" data-name="패스 442" d="M15.887,6.14l-.026,0a2.733,2.733,0,0,0,.257-1.156,3.032,3.032,0,0,0-3.135-2.917,3.288,3.288,0,0,0-1.663.448A4.373,4.373,0,0,0,7.286,0,4.219,4.219,0,0,0,2.924,4.059a3.818,3.818,0,0,0,.036.5l-.036,0A2.829,2.829,0,0,0,0,7.278,2.828,2.828,0,0,0,2.924,10H15.887a2.006,2.006,0,0,0,2.074-1.93,2.006,2.006,0,0,0-2.074-1.93" fill="#ececec"/>
    <path id="패스_443" data-name="패스 443" d="M75.2.669H68.568a.348.348,0,0,1-.36-.335A.348.348,0,0,1,68.568,0H75.2a.348.348,0,0,1,.36.335.348.348,0,0,1-.36.335" transform="translate(-60.922)" fill="#ececec"/>
    <path id="패스_444" data-name="패스 444" d="M148.689.669h-3.846a.348.348,0,0,1-.36-.335.348.348,0,0,1,.36-.335h3.846a.348.348,0,0,1,.36.335.348.348,0,0,1-.36.335" transform="translate(-129.049)" fill="#ececec"/>
    <path id="패스_445" data-name="패스 445" d="M122.946,21.484h-3.966a.336.336,0,1,1,0-.669h3.966a.336.336,0,1,1,0,.669" transform="translate(-105.949 -18.746)" fill="#ececec"/>
    <path id="패스_446" data-name="패스 446" d="M171.868,21.484h-1.052a.336.336,0,1,1,0-.669h1.052a.336.336,0,1,1,0,.669" transform="translate(-152.247 -18.746)" fill="#ececec"/>
    <path id="패스_447" data-name="패스 447" d="M125.57,62.2h-6.589a.336.336,0,1,1,0-.669h6.589a.336.336,0,1,1,0,.669" transform="translate(-105.949 -55.411)" fill="#ececec"/>
    <path id="패스_448" data-name="패스 448" d="M125.57,94.526h-6.589a.336.336,0,1,1,0-.669h6.589a.336.336,0,1,1,0,.669" transform="translate(-105.949 -84.526)" fill="#ececec"/>
  </g>
</svg>
