<svg xmlns="http://www.w3.org/2000/svg" width="20" height="22.003" viewBox="0 0 20 22.003">
  <path id="protect" d="M12.278,22.839a1.806,1.806,0,0,0,.507.211,1.279,1.279,0,0,0,.43,0,1.806,1.806,0,0,0,.507-.211C15.857,21.728,22,18.1,22,13.093V8.848a5.1,5.1,0,0,0-.147-1.732,2.244,2.244,0,0,0-.615-.886,5.124,5.124,0,0,0-1.574-.745L13.632,3.228a2.4,2.4,0,0,0-.471-.149,1.128,1.128,0,0,0-.322,0,2.4,2.4,0,0,0-.471.149L6.336,5.485a5.125,5.125,0,0,0-1.574.745,2.245,2.245,0,0,0-.615.886A5.1,5.1,0,0,0,4,8.848v4.245C4,18.1,10.142,21.728,12.278,22.839Z" transform="translate(-3 -2.068)" fill="none" stroke="#262626" stroke-linecap="round" stroke-linejoin="round" stroke-width="2"/>
</svg>
