<svg xmlns="http://www.w3.org/2000/svg" width="22.414" height="22.414" viewBox="0 0 22.414 22.414">
  <path id="pencil" d="M18,2l4,4M2,22l1.276-4.68a4.184,4.184,0,0,1,.189-.6,2,2,0,0,1,.208-.359A4.188,4.188,0,0,1,4.1,15.9L14.434,5.566a1.242,1.242,0,0,1,.411-.334.5.5,0,0,1,.309,0,1.242,1.242,0,0,1,.411.334l2.869,2.869a1.242,1.242,0,0,1,.334.411.5.5,0,0,1,0,.309,1.242,1.242,0,0,1-.334.411L8.1,19.9a4.184,4.184,0,0,1-.462.428,2,2,0,0,1-.359.208,4.191,4.191,0,0,1-.6.189Z" transform="translate(-1 -0.586)" fill="none" stroke="#262626" stroke-linecap="round" stroke-linejoin="round" stroke-width="2"/>
</svg>
