<svg xmlns="http://www.w3.org/2000/svg" width="22" height="19" viewBox="0 0 22 19">
  <path id="ico-youtube-1" d="M7.845,4.775a31.487,31.487,0,0,1,8.31,0,5.253,5.253,0,0,1,4.528,3.766,19.033,19.033,0,0,1,0,6.917,5.253,5.253,0,0,1-4.528,3.766,31.491,31.491,0,0,1-8.31,0,5.253,5.253,0,0,1-4.528-3.766,19.031,19.031,0,0,1,0-6.917A5.253,5.253,0,0,1,7.845,4.775ZM16.436,2.8a33.481,33.481,0,0,0-8.871,0,7.237,7.237,0,0,0-6.21,5.361,21.024,21.024,0,0,0,0,7.687A7.237,7.237,0,0,0,7.564,21.2a33.48,33.48,0,0,0,8.871,0,7.237,7.237,0,0,0,6.21-5.362,21.028,21.028,0,0,0,0-7.687A7.237,7.237,0,0,0,16.436,2.8ZM10.555,7.168A1,1,0,0,0,9,8v8a1,1,0,0,0,1.555.832l6-4a1,1,0,0,0,0-1.664ZM14.2,12,11,14.132V9.869Z" transform="translate(-1 -2.5)" fill="#262626" fill-rule="evenodd"/>
</svg>
