<svg xmlns="http://www.w3.org/2000/svg" width="22" height="22" viewBox="0 0 22 22">
  <path id="calendar" d="M17.444,14.112H8.556M7.444,3V5.222M18.556,3V5.222M6.556,23H19.444a5.521,5.521,0,0,0,2.342-.242,2.222,2.222,0,0,0,.971-.971A5.521,5.521,0,0,0,23,19.444V8.778a5.52,5.52,0,0,0-.242-2.342,2.222,2.222,0,0,0-.971-.971,5.521,5.521,0,0,0-2.342-.242H6.556a5.521,5.521,0,0,0-2.342.242,2.222,2.222,0,0,0-.971.971A5.521,5.521,0,0,0,3,8.778V19.444a5.521,5.521,0,0,0,.242,2.342,2.222,2.222,0,0,0,.971.971A5.52,5.52,0,0,0,6.556,23Z" transform="translate(-2 -2)" fill="none" stroke="#262626" stroke-linecap="round" stroke-linejoin="round" stroke-width="2"/>
</svg>
