<svg xmlns="http://www.w3.org/2000/svg" width="20" height="20" viewBox="0 0 20 20">
  <g id="link" transform="translate(-1.711 -1.711)">
    <path id="패스_181" data-name="패스 181" d="M17.111,13.575a1,1,0,0,0,1.414,0L21,11.1a5.5,5.5,0,0,0-7.778-7.778L10.747,5.8a1,1,0,0,0,1.414,1.414l2.475-2.475a3.5,3.5,0,0,1,4.95,4.95l-2.475,2.475A1,1,0,0,0,17.111,13.575Z" transform="translate(-0.9)" fill="#262626"/>
    <path id="패스_182" data-name="패스 182" d="M5.8,10.747a1,1,0,0,1,1.414,1.414L4.737,14.636a3.5,3.5,0,0,0,4.95,4.95l2.475-2.475a1,1,0,1,1,1.414,1.414L11.1,21a5.5,5.5,0,0,1-7.778-7.778Z" transform="translate(0 -0.9)" fill="#262626"/>
    <path id="패스_183" data-name="패스 183" d="M8.979,15.343a1,1,0,0,1,0-1.414l4.95-4.95a1,1,0,0,1,1.414,1.414l-4.95,4.95A1,1,0,0,1,8.979,15.343Z" transform="translate(-0.45 -0.45)" fill="#262626"/>
  </g>
</svg>
