<svg id="loading" xmlns="http://www.w3.org/2000/svg" width="20" height="20" viewBox="0 0 20 20">
  <path id="패스_365" data-name="패스 365" d="M172.947,1.734a1.82,1.82,0,0,1-3.635,0,1.82,1.82,0,0,1,3.635,0" transform="translate(-160.655 0.001)" fill="#3e78ff"/>
  <path id="패스_366" data-name="패스 366" d="M86.2,27.8a1.546,1.546,0,0,1-.607,2.164,1.7,1.7,0,0,1-2.267-.58,1.546,1.546,0,0,1,.607-2.164,1.7,1.7,0,0,1,2.267.58" transform="translate(-78.856 -25.693)" fill="rgba(62,120,255,0.9)"/>
  <path id="패스_367" data-name="패스 367" d="M23.082,95.662a1.4,1.4,0,0,1,.55,1.958,1.541,1.541,0,0,1-2.051.525,1.4,1.4,0,0,1-.55-1.958,1.541,1.541,0,0,1,2.051-.525" transform="translate(-19.764 -90.81)" fill="rgba(62,120,255,0.8)"/>
  <path id="패스_368" data-name="패스 368" d="M1.343,187.859a1.284,1.284,0,1,1,0,2.565,1.284,1.284,0,1,1,0-2.565" transform="translate(0 -178.689)" fill="rgba(62,120,255,0.7)"/>
  <path id="패스_369" data-name="패스 369" d="M27.606,280.391a1.216,1.216,0,0,1,1.619.414,1.1,1.1,0,0,1-.434,1.546,1.217,1.217,0,0,1-1.619-.414,1.1,1.1,0,0,1,.434-1.546" transform="translate(-25.632 -266.56)" fill="rgba(62,120,255,0.6)"/>
  <path id="패스_370" data-name="패스 370" d="M95.61,349.188a1.054,1.054,0,0,1,1.4-.359.957.957,0,0,1,.376,1.34,1.054,1.054,0,0,1-1.4.359.957.957,0,0,1-.376-1.34" transform="translate(-90.591 -331.676)" fill="rgba(62,120,255,0.5)"/>
  <path id="패스_371" data-name="패스 371" d="M187.859,376.547a.87.87,0,1,1,.869.83.85.85,0,0,1-.869-.83" transform="translate(-178.254 -357.377)" fill="rgba(62,120,255,0.4)"/>
  <path id="패스_372" data-name="패스 372" d="M280.336,355.9a.663.663,0,0,1,.26-.928.73.73,0,0,1,.972.249.663.663,0,0,1-.26.928.73.73,0,0,1-.972-.249" transform="translate(-265.913 -337.558)" fill="rgba(62,120,255,0.3)"/>
  <path id="패스_373" data-name="패스 373" d="M348.976,293.591a.515.515,0,0,1-.2-.721.568.568,0,0,1,.756-.193.515.515,0,0,1,.2.721.568.568,0,0,1-.756.193" transform="translate(-330.871 -278.322)" fill="rgba(62,120,255,0.2)"/>
  <path id="패스_374" data-name="패스 374" d="M376.113,207.16a.378.378,0,1,1,.4-.377.387.387,0,0,1-.4.377" transform="translate(-356.508 -196.331)" fill="rgba(62,120,255,0.1)"/>
  <path id="패스_375" data-name="패스 375" d="M355.239,120.626a.243.243,0,0,1-.324-.083.221.221,0,0,1,.087-.309.243.243,0,0,1,.324.083.221.221,0,0,1-.087.309" transform="translate(-336.739 -114.336)" fill="rgba(62,120,255,0.1)"/>
</svg>
