<svg xmlns="http://www.w3.org/2000/svg" width="20" height="20" viewBox="0 0 20 20">
  <g id="sun" transform="translate(-4.75 -4.25)">
    <path id="패스_213" data-name="패스 213" d="M15.125,12A2.625,2.625,0,1,1,12.5,9.375,2.625,2.625,0,0,1,15.125,12Z" transform="translate(2.25 2.25)" fill="rgba(0,0,0,0)" stroke="#262626" stroke-linecap="round" stroke-linejoin="round" stroke-width="2" fill-rule="evenodd"/>
    <path id="패스_214" data-name="패스 214" d="M23.782,15.218a.968.968,0,1,0,0-1.935Zm-2.258-1.935a.968.968,0,0,0,0,1.935ZM7.976,15.218a.968.968,0,1,0,0-1.935ZM5.718,13.282a.968.968,0,1,0,0,1.935Zm10-8.065a.968.968,0,1,0-1.935,0ZM13.782,7.476a.968.968,0,1,0,1.935,0Zm1.935,13.548a.968.968,0,1,0-1.935,0Zm-1.935,2.258a.968.968,0,0,0,1.935,0ZM21.821,8.547a.968.968,0,0,0-1.369-1.369Zm-2.966.229a.968.968,0,0,0,1.369,1.369ZM10.645,19.724a.968.968,0,0,0-1.369-1.369Zm-2.966.229a.968.968,0,0,0,1.369,1.369ZM9.047,7.179A.968.968,0,1,0,7.679,8.547Zm.229,2.966a.968.968,0,0,0,1.369-1.369Zm10.949,8.212a.968.968,0,1,0-1.369,1.369Zm.228,2.965a.968.968,0,0,0,1.369-1.369Zm3.329-8.039H21.524v1.935h2.258Zm-15.806,0H5.718v1.935H7.976Zm5.806-8.065V7.476h1.935V5.218Zm0,15.806v2.258h1.935V21.024ZM20.453,7.179l-1.6,1.6,1.369,1.369,1.6-1.6ZM9.276,18.355l-1.6,1.6,1.369,1.369,1.6-1.6Zm-1.6-9.808,1.6,1.6,1.369-1.369-1.6-1.6ZM18.857,19.725l1.6,1.6,1.369-1.369-1.6-1.6Z"/>
  </g>
</svg>
