<svg xmlns="http://www.w3.org/2000/svg" width="16.5" height="19.5" viewBox="0 0 16.5 19.5">
  <path id="ico-share" d="M16.5,2.25a3.253,3.253,0,0,0-3.2,3.824L8.57,9.386a.756.756,0,0,0-.068.054,3.25,3.25,0,1,0,0,5.121.755.755,0,0,0,.068.054L13.3,17.926a3.251,3.251,0,1,0,.617-1.4L9.438,13.391a3.258,3.258,0,0,0,0-2.782l4.479-3.136A3.25,3.25,0,1,0,16.5,2.25ZM14.75,5.5A1.75,1.75,0,1,1,16.5,7.25,1.75,1.75,0,0,1,14.75,5.5ZM6.5,10.25A1.75,1.75,0,1,0,8.25,12,1.75,1.75,0,0,0,6.5,10.25Zm10,6.5a1.75,1.75,0,1,0,1.75,1.75A1.75,1.75,0,0,0,16.5,16.75Z" transform="translate(-3.25 -2.25)" fill="#272727" fill-rule="evenodd"/>
</svg>
