<svg xmlns="http://www.w3.org/2000/svg" width="20" height="20" viewBox="0 0 20 20">
  <path id="increase" d="M20.091,7.364a.909.909,0,0,1-.909-.909V4.1l-6.9,6.9,6.9,6.9V15.545a.909.909,0,1,1,1.818,0v3.636A1.818,1.818,0,0,1,19.182,21H15.545a.909.909,0,1,1,0-1.818H17.9l-6.9-6.9-6.9,6.9H6.455a.909.909,0,1,1,0,1.818H2.818A1.818,1.818,0,0,1,1,19.182V15.545a.909.909,0,1,1,1.818,0V17.9l6.9-6.9-6.9-6.9V6.455A.909.909,0,1,1,1,6.455V2.818A1.818,1.818,0,0,1,2.818,1H6.455a.909.909,0,1,1,0,1.818H4.1l6.9,6.9,6.9-6.9H15.545a.909.909,0,1,1,0-1.818h3.636A1.818,1.818,0,0,1,21,2.818V6.455A.909.909,0,0,1,20.091,7.364Z" transform="translate(-1 -1)" fill="#262626"/>
</svg>
