<svg xmlns="http://www.w3.org/2000/svg" xmlns:xlink="http://www.w3.org/1999/xlink" width="20" height="17" viewBox="0 0 20 17">
  <defs>
    <clipPath id="clip-path">
      <rect id="사각형_209" data-name="사각형 209" width="20" height="17" fill="none"/>
    </clipPath>
  </defs>
  <g id="cloud" clip-path="url(#clip-path)">
    <path id="패스_440" data-name="패스 440" d="M89.194,7.385a3.214,3.214,0,0,0,1.545-.393,4.161,4.161,0,1,1,0-5.664,3.226,3.226,0,1,0-1.545,6.056" transform="translate(-73.587 0.001)" fill="#ffdc7b"/>
    <path id="패스_441" data-name="패스 441" d="M17.69,49.831c-.01,0-.019,0-.029,0A3.486,3.486,0,0,0,12.6,45.5,4.85,4.85,0,0,0,3.3,47.941l-.04,0a3.253,3.253,0,1,0,0,6.505H17.69a2.307,2.307,0,1,0,0-4.613" transform="translate(0 -37.444)" fill="#ececec"/>
  </g>
</svg>
