<svg xmlns="http://www.w3.org/2000/svg" width="22" height="20" viewBox="0 0 22 20">
  <g id="camera" transform="translate(-2 -3)">
    <path id="패스_217" data-name="패스 217" d="M12,16a3,3,0,1,0-3-3A3,3,0,0,0,12,16Z" transform="translate(1 1.2)" fill="none" stroke="#262626" stroke-linecap="round" stroke-linejoin="round" stroke-width="2"/>
    <path id="패스_218" data-name="패스 218" d="M3,18.4V9.85a5.655,5.655,0,0,1,.242-2.371A2.236,2.236,0,0,1,4.213,6.5,5.457,5.457,0,0,1,6.556,6.25H7.727A2.463,2.463,0,0,0,8,6.243a1.109,1.109,0,0,0,.8-.5A2.537,2.537,0,0,0,8.926,5.5a5.073,5.073,0,0,1,.253-.479,2.219,2.219,0,0,1,1.609-1.007A4.929,4.929,0,0,1,11.323,4h3.354a4.929,4.929,0,0,1,.536.015,2.219,2.219,0,0,1,1.609,1.007,5.1,5.1,0,0,1,.253.479,2.511,2.511,0,0,0,.126.239,1.109,1.109,0,0,0,.8.5,2.466,2.466,0,0,0,.268.007h1.172a5.457,5.457,0,0,1,2.342.245,2.236,2.236,0,0,1,.971.983A5.655,5.655,0,0,1,23,9.85V18.4a5.655,5.655,0,0,1-.242,2.372,2.236,2.236,0,0,1-.971.983A5.457,5.457,0,0,1,19.444,22H6.556a5.457,5.457,0,0,1-2.342-.245,2.236,2.236,0,0,1-.971-.983A5.655,5.655,0,0,1,3,18.4Z" transform="translate(0)" fill="none" stroke="#262626" stroke-linecap="round" stroke-linejoin="round" stroke-width="2"/>
  </g>
</svg>
