<svg xmlns="http://www.w3.org/2000/svg" width="20" height="12" viewBox="0 0 20 12">
  <path id="ascend" d="M18.621,7.75a.948.948,0,1,0,0,1.895Zm5.161,1.895a.948.948,0,1,0,0-1.895ZM24.75,8.7a.968.968,0,0,0-1.935,0ZM22.815,13.75a.968.968,0,0,0,1.935,0Zm1.652-4.383a.933.933,0,0,0,0-1.34.982.982,0,0,0-1.369,0ZM14.75,17.54l-.684.67a.982.982,0,0,0,1.369,0ZM10.879,13.75l.684-.67a.982.982,0,0,0-1.369,0ZM5.033,18.133a.933.933,0,0,0,0,1.34.983.983,0,0,0,1.369,0ZM18.621,9.645h5.161V7.75H18.621ZM22.815,8.7V13.75H24.75V8.7Zm.283-.67L14.066,16.87l1.369,1.34,9.032-8.842ZM15.434,16.87,11.563,13.08l-1.369,1.34,3.871,3.789Zm-5.24-3.789L5.033,18.133,6.4,19.473l5.161-5.053Z" transform="translate(-4.75 -7.75)" fill="#262626"/>
</svg>
