<svg xmlns="http://www.w3.org/2000/svg" width="22.008" height="22.008" viewBox="0 0 22.008 22.008">
  <path id="event" d="M12.471,3.977c.263-.511.395-.767.571-.851a.561.561,0,0,1,.483,0c.176.083.307.339.571.851l1.614,3.137a1.356,1.356,0,0,0,.255.4.568.568,0,0,0,.26.128,1.292,1.292,0,0,0,.468-.048l3.4-.663c.554-.108.832-.162,1.005-.073a.585.585,0,0,1,.3.387c.046.193-.067.458-.294.987l-1.388,3.248a1.377,1.377,0,0,0-.15.457.6.6,0,0,0,.064.289,1.341,1.341,0,0,0,.329.345l2.627,2.31c.428.377.642.565.683.759a.6.6,0,0,1-.107.482c-.119.157-.391.231-.937.38l-3.345.914a1.3,1.3,0,0,0-.442.165.585.585,0,0,0-.18.231,1.384,1.384,0,0,0-.058.478l-.126,3.543c-.02.578-.031.867-.154,1.02a.568.568,0,0,1-.435.215c-.194,0-.421-.169-.874-.513l-2.783-2.109a1.317,1.317,0,0,0-.4-.251.561.561,0,0,0-.289,0,1.317,1.317,0,0,0-.4.251L9.954,22.559c-.454.344-.681.516-.874.513a.568.568,0,0,1-.435-.215c-.123-.153-.133-.442-.154-1.02l-.126-3.543a1.384,1.384,0,0,0-.058-.478.584.584,0,0,0-.18-.231,1.3,1.3,0,0,0-.442-.165L4.34,16.506c-.545-.149-.818-.223-.937-.38a.6.6,0,0,1-.107-.482c.04-.194.254-.382.683-.759l2.627-2.31a1.341,1.341,0,0,0,.329-.345A.6.6,0,0,0,7,11.941a1.376,1.376,0,0,0-.15-.457L5.46,8.237c-.226-.53-.339-.794-.294-.987a.585.585,0,0,1,.3-.387c.173-.089.451-.035,1.005.073l3.4.663a1.291,1.291,0,0,0,.468.048.568.568,0,0,0,.261-.128,1.356,1.356,0,0,0,.255-.4Z" transform="translate(-2.279 -2.064)" fill="none" stroke="#262626" stroke-linecap="round" stroke-linejoin="round" stroke-width="2"/>
</svg>
