<svg xmlns="http://www.w3.org/2000/svg" width="22" height="16" viewBox="0 0 22 16">
  <path id="ticket" d="M5.222,13A3.5,3.5,0,0,0,3,9.7V7.867a3.034,3.034,0,0,1,.121-1.23,1.141,1.141,0,0,1,.486-.51A2.638,2.638,0,0,1,4.778,6H21.222a2.638,2.638,0,0,1,1.171.127,1.14,1.14,0,0,1,.486.51A3.034,3.034,0,0,1,23,7.867V9.7a3.563,3.563,0,0,0,0,6.6v1.832a3.034,3.034,0,0,1-.121,1.23,1.14,1.14,0,0,1-.486.51A2.638,2.638,0,0,1,21.222,20H4.778a2.638,2.638,0,0,1-1.171-.127,1.14,1.14,0,0,1-.486-.51A3.034,3.034,0,0,1,3,18.133V16.3A3.5,3.5,0,0,0,5.222,13Z" transform="translate(-2 -5)" fill="none" stroke="#262626" stroke-linecap="round" stroke-linejoin="round" stroke-width="2"/>
</svg>
