<svg xmlns="http://www.w3.org/2000/svg" width="93.995" height="93.377" viewBox="0 0 93.995 93.377">
  <path id="image" d="M61.734,71.148l-9.383-9.3c-4.528-4.49-6.792-6.735-9.389-7.556a11.251,11.251,0,0,0-7.009.076c-2.58.877-4.794,3.17-9.224,7.757L4.248,84.326M61.734,71.148l1.92-1.9c4.533-4.5,6.8-6.743,9.4-7.564a11.248,11.248,0,0,1,7.015.081c2.581.88,4.8,3.179,9.224,7.778L94,74.275M61.734,71.148,84.3,93.755m0,0A76.457,76.457,0,0,1,76,94H22c-6.3,0-9.451,0-11.857-1.226a11.249,11.249,0,0,1-4.916-4.916,10.38,10.38,0,0,1-.978-3.532M84.3,93.755a10.408,10.408,0,0,0,3.561-.982,11.248,11.248,0,0,0,4.916-4.916C94,85.451,94,82.3,94,76V74.275M4.248,84.326A75.877,75.877,0,0,1,4,76V22c0-6.3,0-9.451,1.226-11.857a11.249,11.249,0,0,1,4.916-4.916C12.549,4,15.7,4,22,4H76c6.3,0,9.451,0,11.858,1.226a11.249,11.249,0,0,1,4.916,4.916C94,12.549,94,15.7,94,22V74.275M77.125,32.124a11.25,11.25,0,1,1-11.25-11.25A11.25,11.25,0,0,1,77.125,32.124Z" transform="translate(-2.127 -2.5)" fill="none" stroke="#ececec" stroke-linecap="round" stroke-linejoin="round" stroke-width="3"/>
</svg>
