<svg xmlns="http://www.w3.org/2000/svg" width="20" height="12" viewBox="0 0 20 12">
  <path id="fall" d="M11.379,19.25a.948.948,0,1,0,0-1.895ZM6.218,17.355a.948.948,0,1,0,0,1.895ZM5.25,18.3a.968.968,0,0,0,1.935,0ZM7.185,13.25a.968.968,0,0,0-1.935,0ZM5.533,17.633a.933.933,0,0,0,0,1.34.983.983,0,0,0,1.369,0ZM15.25,9.461l.684-.67a.982.982,0,0,0-1.369,0Zm3.871,3.789-.684.67a.982.982,0,0,0,1.369,0Zm5.846-4.383a.933.933,0,0,0,0-1.34.982.982,0,0,0-1.369,0ZM11.379,17.355H6.218V19.25h5.161ZM7.185,18.3V13.25H5.25V18.3Zm-.283.67,9.032-8.842-1.369-1.34L5.533,17.633Zm7.664-8.842,3.871,3.789,1.369-1.34-3.871-3.79Zm5.239,3.789,5.161-5.053L23.6,7.527,18.437,12.58Z" transform="translate(-5.25 -7.25)" fill="#262626"/>
</svg>
