<svg width="380" height="22" viewBox="0 0 380 22" fill="none" xmlns="http://www.w3.org/2000/svg">
<path d="M81.4923 21.8211H78.8568V0.00307846H81.4923V21.8211Z" fill="white"/>
<path d="M103.944 21.8211C100.937 21.8211 98.3689 20.7559 96.2408 18.6255C94.1128 16.4951 93.0488 13.9245 93.0488 10.9136C93.0488 7.91815 94.1128 5.3506 96.2408 3.21097C98.3689 1.07135 100.937 0.00307846 103.944 0.00307846C106.952 0.00307846 109.523 1.07135 111.66 3.21097C113.797 5.3506 114.864 7.91507 114.864 10.9136C114.864 13.9245 113.797 16.4951 111.66 18.6255C109.523 20.7559 106.952 21.8211 103.944 21.8211ZM103.944 2.66606C101.678 2.66606 99.7373 3.46958 98.1259 5.0766C96.5145 6.68363 95.7058 8.62315 95.7058 10.8921C95.7058 13.1887 96.5115 15.1436 98.1259 16.7506C99.7373 18.3577 101.678 19.1612 103.944 19.1612C106.211 19.1612 108.151 18.3577 109.762 16.7506C111.374 15.1436 112.183 13.1918 112.183 10.8921C112.183 8.62315 111.377 6.68671 109.762 5.0766C108.151 3.46958 106.211 2.66606 103.944 2.66606ZM103.944 18.2869C101.924 18.2869 100.196 17.5665 98.7563 16.1257C97.3172 14.6849 96.5976 12.9486 96.5976 10.9105C96.5976 8.88791 97.3172 7.15466 98.7563 5.70772C100.196 4.26078 101.924 3.53731 103.944 3.53731C105.965 3.53731 107.693 4.26078 109.132 5.70772C110.571 7.15466 111.291 8.89098 111.291 10.9105C111.291 12.9455 110.571 14.6849 109.132 16.1257C107.693 17.5665 105.965 18.2869 103.944 18.2869ZM103.944 6.17874C102.653 6.17874 101.542 6.64053 100.62 7.56411C99.6973 8.48769 99.2361 9.59598 99.2361 10.8921C99.2361 12.2005 99.6973 13.318 100.62 14.2416C101.542 15.1652 102.65 15.627 103.944 15.627C105.236 15.627 106.346 15.1652 107.268 14.2416C108.191 13.318 108.652 12.2005 108.652 10.8921C108.652 9.59906 108.191 8.48769 107.268 7.56411C106.346 6.64053 105.236 6.17874 103.944 6.17874Z" fill="white"/>
<path d="M132.602 18.2869H129.942C129.013 18.2715 128.217 17.9328 127.555 17.274C126.894 16.6152 126.565 15.824 126.565 14.9066C126.565 13.9768 126.9 13.1825 127.568 12.5299C127.7 12.3975 127.786 12.3113 127.829 12.2682C127.888 12.2097 127.952 12.1451 128.026 12.0712C129.087 10.9937 129.616 9.6945 129.616 8.16444C129.616 6.65285 129.078 5.35676 128.004 4.28233C126.928 3.20482 125.636 2.66914 124.127 2.66914C122.601 2.66914 121.3 3.2079 120.227 4.28233C119.151 5.35984 118.616 6.65285 118.616 8.16444V21.8211H115.956V8.16136C115.956 5.92014 116.755 4.00217 118.354 2.4013C119.954 0.800435 121.879 0 124.13 0C126.381 0 128.303 0.800435 129.893 2.4013C131.482 4.00217 132.279 5.92014 132.279 8.16136C132.279 10.4303 131.489 12.3575 129.905 13.943C129.819 14.0168 129.73 14.0969 129.643 14.1831C129.628 14.1831 129.557 14.2477 129.425 14.3801C129.281 14.5248 129.207 14.7003 129.207 14.9035C129.207 15.0913 129.281 15.2606 129.425 15.4053C129.57 15.55 129.745 15.6239 129.948 15.6239H132.608V18.2869H132.602ZM132.602 21.8211H129.942C128.038 21.8211 126.411 21.1438 125.061 19.7923C123.711 18.4408 123.035 16.8091 123.035 14.9066C123.035 13.004 123.711 11.3662 125.061 9.9962C125.221 9.83611 125.387 9.68526 125.563 9.53749C125.926 9.15882 126.107 8.70011 126.107 8.16444C126.107 7.62568 125.91 7.16081 125.52 6.76675C125.126 6.37269 124.662 6.17874 124.124 6.17874C123.57 6.17874 123.099 6.37577 122.706 6.76675C122.312 7.16081 122.125 7.62568 122.14 8.16444V21.8211H119.48V8.16136C119.465 6.89605 119.914 5.80931 120.821 4.90112C121.728 3.99294 122.829 3.53731 124.124 3.53731C125.403 3.53731 126.494 3.99294 127.405 4.90112C128.312 5.80931 128.767 6.89605 128.767 8.16136C128.767 9.45437 128.303 10.5688 127.371 11.4986C127.226 11.6155 127.079 11.7448 126.934 11.8926C126.092 12.7208 125.67 13.7244 125.67 14.9035C125.67 16.0672 126.089 17.0677 126.925 17.902C127.761 18.7394 128.767 19.1581 129.942 19.1581H132.602V21.8211Z" fill="white"/>
<path d="M133.69 6.20029C133.764 4.54093 134.395 3.10938 135.588 1.90257C136.864 0.637269 138.405 0.00307846 140.207 0.00307846H147.375V2.66606H140.207C139.146 2.66606 138.239 3.04473 137.482 3.79899C136.726 4.55632 136.347 5.46451 136.347 6.52662V15.2975C136.347 16.3597 136.726 17.2678 137.482 18.0252C138.239 18.7825 139.146 19.1612 140.207 19.1612H147.375V21.8242H140.207C138.405 21.8242 136.864 21.1931 135.588 19.9247C134.395 18.7179 133.764 17.2863 133.69 15.627V6.20029ZM139.924 7.72727H146.003V10.3903H137.221V6.20029H137.242C137.301 5.51684 137.584 4.91344 138.091 4.39008C138.672 3.82362 139.361 3.54038 140.161 3.54038H147.375V6.17874H140.794C140.56 6.17874 140.357 6.26494 140.185 6.44042C140.01 6.6159 139.924 6.81909 139.924 7.04998V7.72727ZM139.924 14.7526C139.924 14.9866 140.01 15.1898 140.185 15.3653C140.36 15.5407 140.563 15.627 140.794 15.627H147.375V18.2899H140.161C139.361 18.2899 138.672 18.0067 138.091 17.4402C137.584 16.9169 137.301 16.3135 137.242 15.63H137.221V11.4339H146.003V14.0969H139.924V14.7526Z" fill="white"/>
<path d="M166.257 21.8211L160.22 3.90982L160.088 3.51576C160.029 3.34028 159.922 3.18019 159.762 3.0355C159.528 2.78921 159.245 2.66299 158.913 2.66299C158.578 2.66299 158.28 2.78613 158.018 3.0355C157.901 3.15248 157.815 3.28178 157.757 3.42956L157.714 3.56193C157.714 3.58964 157.708 3.62659 157.692 3.66969L157.606 3.90982L151.591 21.8211H148.759L155.164 2.79844C155.34 2.17349 155.666 1.61934 156.145 1.13908C156.902 0.381746 157.824 0.00307846 158.913 0.00307846C159.989 0.00307846 160.903 0.381746 161.659 1.13908C162.053 1.53314 162.342 1.96722 162.529 2.44748H162.551L169.067 21.8211H166.257ZM159.307 3.82054L160.331 6.89605L165.343 21.818H162.554L158.938 11.0614L155.297 21.8211H152.529L157.91 5.76313L158.566 3.84209C158.581 3.7682 158.618 3.69739 158.673 3.62351C158.747 3.54962 158.833 3.51576 158.935 3.51576C159.036 3.51576 159.122 3.5527 159.196 3.62351C159.242 3.682 159.276 3.74973 159.307 3.82054Z" fill="white"/>
<path d="M85.0441 3.34028L88.4207 0.00307846H92.1908L82.4056 9.58059V0.00307846H85.0441V3.34028Z" fill="white"/>
<path d="M85.0441 21.8211H82.4056V12.2436L92.1908 21.8211H88.4207L85.0441 18.4808V21.8211Z" fill="white"/>
<path d="M85.8314 10.9075L96.9635 0.00307846H93.2026L83.9493 9.06339L82.3872 10.5965V11.2184L83.9493 12.7485L93.2118 21.8211H96.9758L85.8314 10.9075Z" fill="white"/>
<path d="M259.004 21.8211H256.344V6.20029C256.418 4.54093 257.048 3.10938 258.241 1.90257C259.518 0.637269 261.058 0.00307846 262.86 0.00307846H271.046V2.66606H262.86C261.799 2.66606 260.892 3.04473 260.136 3.79899C259.379 4.55632 259.001 5.46451 259.001 6.52662V21.8211H259.004ZM262.577 7.72727H268.657V10.3903H259.874V6.20029H259.896C259.954 5.51684 260.237 4.91344 260.745 4.39008C261.326 3.82362 262.015 3.54038 262.814 3.54038H271.043V6.17874H263.445C263.211 6.17874 263.008 6.26494 262.836 6.44042C262.66 6.6159 262.574 6.81909 262.574 7.04998V7.72727H262.577ZM262.534 14.0969V21.8211H259.874V11.4339H268.657V14.0969H262.534Z" fill="white"/>
<path d="M272.138 6.20029C272.212 4.54093 272.842 3.10938 274.035 1.90257C275.312 0.637269 276.852 0.00307846 278.654 0.00307846H285.823V2.66606H278.654C277.593 2.66606 276.686 3.04473 275.93 3.79899C275.173 4.55632 274.795 5.46451 274.795 6.52662V15.2975C274.795 16.3597 275.173 17.2678 275.93 18.0252C276.686 18.7825 277.593 19.1612 278.654 19.1612H285.823V21.8242H278.654C276.852 21.8242 275.312 21.1931 274.035 19.9247C272.842 18.7179 272.212 17.2863 272.138 15.627V6.20029ZM278.368 7.72727H284.448V10.3903H275.665V6.20029H275.687C275.745 5.51684 276.028 4.91344 276.536 4.39008C277.117 3.82362 277.806 3.54038 278.605 3.54038H285.82V6.17874H279.239C279.005 6.17874 278.802 6.26494 278.63 6.44042C278.455 6.6159 278.368 6.81909 278.368 7.04998V7.72727ZM278.368 14.7526C278.368 14.9866 278.455 15.1898 278.63 15.3653C278.805 15.5407 279.008 15.627 279.239 15.627H285.82V18.2899H278.605C277.806 18.2899 277.117 18.0067 276.536 17.4402C276.028 16.9169 275.745 16.3135 275.687 15.63H275.665V11.4339H284.448V14.0969H278.368V14.7526Z" fill="white"/>
<path d="M295.759 15.6239C295.992 15.6239 296.186 15.5438 296.346 15.3837C296.506 15.2237 296.586 15.0266 296.586 14.7957C296.586 14.5771 296.506 14.3894 296.346 14.2293C296.186 14.0692 295.989 13.9891 295.759 13.9891H293.428C291.496 13.9891 289.845 13.3088 288.48 11.948C287.114 10.5873 286.432 8.93408 286.432 6.98533C286.432 5.06429 287.114 3.4234 288.48 2.05342C289.848 0.686527 291.496 0.00307846 293.428 0.00307846H302.755V2.66606H293.428C292.234 2.66606 291.216 3.08783 290.365 3.93137C289.516 4.7749 289.088 5.79392 289.088 6.98533C289.088 8.17675 289.513 9.19884 290.365 10.0516C291.216 10.9044 292.234 11.3292 293.428 11.3292L295.759 11.3508C296.718 11.3508 297.539 11.6894 298.222 12.3636C298.904 13.0409 299.246 13.8506 299.246 14.7957C299.246 15.7563 298.904 16.5782 298.222 17.2617C297.539 17.9451 296.718 18.2869 295.759 18.2869H286.432V15.6239H295.759ZM295.759 21.8211H286.432V19.1581H295.759C296.949 19.1581 297.97 18.7333 298.821 17.8805C299.67 17.0308 300.098 16.0087 300.098 14.8142C300.098 13.6228 299.673 12.6038 298.821 11.7602C297.973 10.9167 296.952 10.4949 295.759 10.4949H293.428C292.468 10.4949 291.647 10.1532 290.964 9.46976C290.282 8.78631 289.94 7.96433 289.94 7.0038C289.94 6.05868 290.282 5.24285 290.964 4.5594C291.647 3.89134 292.468 3.54962 293.428 3.53423H302.755V6.17258H293.428C293.194 6.17258 293 6.25263 292.84 6.41271C292.68 6.5728 292.6 6.76983 292.6 7.00073C292.6 7.2347 292.68 7.42865 292.84 7.58874C293 7.74882 293.197 7.82887 293.428 7.82887H295.759C297.677 7.82887 299.323 8.51232 300.694 9.87921C302.066 11.2461 302.755 12.8901 302.755 14.8111C302.755 16.7599 302.069 18.4131 300.694 19.7738C299.323 21.1407 297.677 21.8211 295.759 21.8211Z" fill="white"/>
<path d="M319.437 0.00307846V2.66606H303.311V0.00307846H319.437ZM310.938 21.8211H308.302V6.17874H303.311V3.54038H310.938V21.8211ZM314.468 6.17874V21.8211H311.808V3.53731H319.434V6.17566H314.468V6.17874Z" fill="white"/>
<path d="M323.555 0.00307846V21.8211H320.895V0.00307846H323.555ZM327.088 0.00307846V21.8211H324.428V0.00307846H327.088Z" fill="white"/>
<path d="M331.357 0.00307846L337.393 17.9143L337.526 18.3084C337.584 18.4839 337.692 18.644 337.852 18.7887C338.085 19.035 338.368 19.1612 338.7 19.1612C339.036 19.1612 339.334 19.038 339.595 18.7887C339.712 18.6717 339.798 18.5424 339.857 18.3946L339.9 18.2622C339.9 18.2345 339.906 18.1976 339.921 18.1545L340.007 17.9143L346.025 0.00307846H348.858L342.452 19.0257C342.277 19.6507 341.951 20.2048 341.471 20.6851C340.715 21.4424 339.792 21.8211 338.703 21.8211C337.627 21.8211 336.714 21.4424 335.957 20.6851C335.564 20.291 335.275 19.8569 335.087 19.3767H335.065L328.546 0.00307846H331.357ZM338.31 18.0005L337.286 14.925L332.273 0.00307846H335.062L338.679 10.7597L342.32 0.00307846H345.088L339.706 16.061L339.051 17.9821C339.036 18.056 338.999 18.1268 338.943 18.2007C338.869 18.2745 338.783 18.3084 338.682 18.3084C338.58 18.3084 338.494 18.2715 338.421 18.2007C338.374 18.1391 338.337 18.0744 338.31 18.0005Z" fill="white"/>
<path d="M361.998 21.8211L355.961 3.90982L355.829 3.51576C355.771 3.34028 355.663 3.18019 355.503 3.0355C355.269 2.78921 354.987 2.66299 354.654 2.66299C354.319 2.66299 354.021 2.78613 353.76 3.0355C353.643 3.15248 353.557 3.28178 353.498 3.42956L353.455 3.56193C353.455 3.58964 353.449 3.62659 353.434 3.66969L353.347 3.90982L347.332 21.8211H344.5L350.906 2.79844C351.081 2.17349 351.407 1.61934 351.887 1.13908C352.643 0.381746 353.566 0.00307846 354.654 0.00307846C355.731 0.00307846 356.644 0.381746 357.401 1.13908C357.794 1.53314 358.083 1.96722 358.271 2.44748H358.292L364.809 21.8211H361.998ZM355.048 3.82054L356.072 6.89605L361.085 21.818H358.295L354.679 11.0614L351.041 21.818H348.273L353.655 5.76005L354.31 3.83901C354.325 3.76512 354.362 3.69431 354.418 3.62043C354.491 3.54654 354.578 3.51268 354.679 3.51268C354.78 3.51268 354.867 3.54962 354.94 3.62043C354.98 3.682 355.017 3.74973 355.048 3.82054Z" fill="white"/>
<path d="M364.938 15.3191V0.00307846H367.598V15.3191C367.598 16.3812 367.973 17.2863 368.72 18.0344C369.468 18.7825 370.372 19.1581 371.433 19.1581H379.997V21.8211H371.433C369.646 21.8211 368.118 21.1838 366.844 19.9124C365.574 18.6378 364.938 17.1078 364.938 15.3191ZM368.468 0.00307846H371.107V14.728C371.107 14.962 371.196 15.1682 371.38 15.3499C371.562 15.5315 371.768 15.6239 372.001 15.6239H380V18.2869H371.371C370.572 18.2869 369.889 18.0036 369.323 17.4372C368.757 16.8707 368.474 16.1873 368.474 15.3868V0.00307846H368.468Z" fill="white"/>
<path d="M220.404 21.8211C217.397 21.8211 214.829 20.7559 212.701 18.6255C210.573 16.4951 209.509 13.9245 209.509 10.9136C209.509 7.91815 210.573 5.3506 212.701 3.21097C214.829 1.07135 217.397 0.00307846 220.404 0.00307846C223.412 0.00307846 225.983 1.07135 228.12 3.21097C230.257 5.3506 231.324 7.91507 231.324 10.9136C231.324 13.9245 230.257 16.4951 228.12 18.6255C225.983 20.7559 223.412 21.8211 220.404 21.8211ZM220.404 2.66606C218.138 2.66606 216.197 3.46958 214.586 5.0766C212.975 6.68363 212.166 8.62315 212.166 10.8921C212.166 13.1887 212.972 15.1436 214.586 16.7506C216.197 18.3577 218.138 19.1612 220.404 19.1612C222.671 19.1612 224.611 18.3577 226.223 16.7506C227.834 15.1436 228.643 13.1918 228.643 10.8921C228.643 8.62315 227.837 6.68671 226.223 5.0766C224.611 3.46958 222.671 2.66606 220.404 2.66606ZM220.404 18.2869C218.384 18.2869 216.656 17.5665 215.216 16.1257C213.777 14.6849 213.058 12.9486 213.058 10.9105C213.058 8.88791 213.777 7.15466 215.216 5.70772C216.656 4.26078 218.384 3.53731 220.404 3.53731C222.425 3.53731 224.153 4.26078 225.592 5.70772C227.031 7.15466 227.751 8.89098 227.751 10.9105C227.751 12.9455 227.031 14.6849 225.592 16.1257C224.153 17.5665 222.422 18.2869 220.404 18.2869ZM220.404 6.17874C219.113 6.17874 218.003 6.64053 217.08 7.56411C216.157 8.48769 215.696 9.59598 215.696 10.8921C215.696 12.2005 216.157 13.318 217.08 14.2416C218.003 15.1652 219.11 15.627 220.404 15.627C221.699 15.627 222.806 15.1652 223.729 14.2416C224.651 13.318 225.112 12.2005 225.112 10.8921C225.112 9.59906 224.651 8.48769 223.729 7.56411C222.803 6.64053 221.696 6.17874 220.404 6.17874Z" fill="white"/>
<path d="M199.567 2.66606C201.077 2.66606 202.371 3.20482 203.445 4.27925C204.521 5.35676 205.056 6.64977 205.056 8.16136C205.056 9.68834 204.527 10.9906 203.466 12.0681C203.392 12.142 203.328 12.2066 203.269 12.2651C203.226 12.3082 203.137 12.3975 203.008 12.5268C202.341 13.1825 202.006 13.9737 202.006 14.9035C202.006 15.8209 202.335 16.609 202.996 17.2709C203.657 17.9328 204.453 18.2715 205.382 18.2838H210.348C209.703 17.4495 209.18 16.5628 208.783 15.6208H205.382C205.179 15.6208 205.004 15.5469 204.859 15.4022C204.715 15.2575 204.641 15.0882 204.641 14.9004C204.641 14.6972 204.715 14.5217 204.859 14.377C204.992 14.2447 205.062 14.18 205.078 14.18C205.164 14.0938 205.253 14.0138 205.339 13.9399C206.923 12.3544 207.713 10.4272 207.713 8.15828C207.713 5.91706 206.917 3.9991 205.327 2.39823C203.737 0.797356 201.818 0.00307846 199.567 0.00307846C197.316 0.00307846 195.391 0.803513 193.792 2.40438C192.193 4.00525 191.396 5.92322 191.396 8.16444V21.8211H194.056V8.16136C194.056 6.64977 194.594 5.35368 195.668 4.27925C196.741 3.20174 198.042 2.66606 199.567 2.66606Z" fill="white"/>
<path d="M211.437 19.5152C211.32 19.3982 211.206 19.2782 211.096 19.1581H205.388C204.21 19.1581 203.205 18.7394 202.371 17.902C201.535 17.0647 201.117 16.0672 201.117 14.9035C201.117 13.7244 201.538 12.7208 202.381 11.8926C202.525 11.7479 202.673 11.6155 202.817 11.4986C203.746 10.5688 204.214 9.45437 204.214 8.16136C204.214 6.89605 203.758 5.80931 202.851 4.90112C201.944 3.99294 200.849 3.53731 199.57 3.53731C198.278 3.53731 197.177 3.99294 196.267 4.90112C195.36 5.80931 194.911 6.89605 194.926 8.16136V21.818H197.587V8.16136C197.571 7.6226 197.762 7.15773 198.152 6.76367C198.546 6.36961 199.016 6.17566 199.57 6.17566C200.108 6.17566 200.573 6.37269 200.966 6.76367C201.36 7.15773 201.553 7.6226 201.553 8.16136C201.553 8.70011 201.372 9.15882 201.009 9.53441C200.834 9.6791 200.668 9.83303 200.508 9.99312C199.158 11.36 198.481 12.9978 198.481 14.9035C198.481 16.8091 199.158 18.4377 200.508 19.7892C201.858 21.1407 203.488 21.818 205.388 21.818H214.583C213.448 21.2454 212.397 20.4788 211.437 19.5152Z" fill="white"/>
<path d="M232.238 6.17874H237.358V21.8211H239.993V3.53731H230.765C231.374 4.36853 231.862 5.249 232.238 6.17874Z" fill="white"/>
<path d="M240.867 21.8211H243.527V6.17874H248.493V3.53731H240.867V21.8211Z" fill="white"/>
<path d="M226.967 0.00307846C227.825 0.532597 228.637 1.17602 229.393 1.93336C229.63 2.17041 229.854 2.4167 230.07 2.66299H248.496V0.00307846H226.967Z" fill="white"/>
<path d="M192.519 1.12677C192.94 0.704998 193.38 0.332488 193.841 0.00307846H174.178V2.66606H191.239C191.605 2.12731 192.033 1.61318 192.519 1.12677Z" fill="white"/>
<path d="M174.178 6.17874H179.169V21.8211H181.808V3.53731H174.178V6.17874Z" fill="white"/>
<path d="M190.713 3.53731H182.678V21.8211H185.338V6.17874H189.779C189.96 5.24593 190.274 4.36545 190.713 3.53731Z" fill="white"/>
<path d="M27.6981 0.00307846C29.6294 0.00307846 31.2807 0.686527 32.6461 2.05342C34.0115 3.42032 34.6942 5.06429 34.6942 6.98533V14.8388C34.6942 16.7599 34.0115 18.4038 32.6461 19.7707C31.2807 21.1376 29.6324 21.8211 27.6981 21.8211H24.8229C22.8916 21.8211 21.2403 21.1376 19.8749 19.7707C18.5095 18.4038 17.8268 16.7599 17.8268 14.8388V6.98533C17.8268 5.06429 18.5095 3.4234 19.8749 2.05342C21.2403 0.686527 22.8886 0.00307846 24.8198 0.00307846H27.6981ZM24.8198 2.66606C23.6266 2.66606 22.6087 3.08783 21.7569 3.93137C20.9082 4.7749 20.4807 5.79392 20.4807 6.98533V14.8388C20.4807 16.0302 20.9051 17.0493 21.7569 17.8928C22.6057 18.7363 23.6266 19.1581 24.8198 19.1581H27.6951C28.8852 19.1581 29.9061 18.7363 30.758 17.8928C31.6067 17.0493 32.0311 16.0302 32.0311 14.8388V6.98533C32.0311 5.79392 31.6067 4.7749 30.758 3.93137C29.9092 3.08783 28.8882 2.66606 27.6951 2.66606H24.8198ZM27.6981 3.53731C28.6576 3.5527 29.4787 3.89442 30.1614 4.56248C30.8441 5.24593 31.1854 6.06175 31.1854 7.00688V14.8173C31.1854 15.7624 30.8441 16.5782 30.1614 17.2617C29.4787 17.9297 28.6576 18.2715 27.6981 18.2869H24.8229C23.8634 18.2715 23.0423 17.9297 22.3596 17.2617C21.6769 16.5782 21.3356 15.7624 21.3356 14.8173V7.00688C21.3356 6.06175 21.6769 5.24593 22.3596 4.56248C23.0423 3.89442 23.8634 3.5527 24.8229 3.53731H27.6981ZM24.8198 6.20029C24.5861 6.20029 24.3923 6.28033 24.2324 6.44042C24.0725 6.60051 23.9926 6.7883 23.9926 7.00688V14.8173C23.9926 15.0359 24.0725 15.2237 24.2324 15.3837C24.3923 15.5438 24.5891 15.6239 24.8198 15.6239H27.6951C27.9288 15.6239 28.1225 15.5438 28.2824 15.3837C28.4423 15.2237 28.5223 15.0359 28.5223 14.8173V7.00688C28.5223 6.7883 28.4423 6.60051 28.2824 6.44042C28.1225 6.28033 27.9257 6.20029 27.6951 6.20029H24.8198Z" fill="white"/>
<path d="M63.2565 15.6239C63.4902 15.6239 63.6839 15.5438 63.8438 15.3837C64.0037 15.2237 64.0837 15.0266 64.0837 14.7957C64.0837 14.5771 64.0037 14.3894 63.8438 14.2293C63.6839 14.0692 63.4871 13.9891 63.2565 13.9891H60.9255C58.9943 13.9891 57.3429 13.3088 55.9775 11.948C54.6121 10.5873 53.9294 8.93408 53.9294 6.98533C53.9294 5.06429 54.6121 3.4234 55.9775 2.05342C57.3429 0.686527 58.9912 0.00307846 60.9255 0.00307846H69.3515V2.66606H60.9255C59.7323 2.66606 58.7144 3.08783 57.8626 3.93137C57.0139 4.7749 56.5864 5.79392 56.5864 6.98533C56.5864 8.17675 57.0108 9.19884 57.8626 10.0516C58.7114 10.9013 59.7323 11.3292 60.9255 11.3292L63.2565 11.3508C64.2159 11.3508 65.037 11.6894 65.7197 12.3636C66.4024 13.0409 66.7437 13.8506 66.7437 14.7957C66.7437 15.7563 66.4024 16.5782 65.7197 17.2617C65.037 17.9451 64.2159 18.2869 63.2565 18.2869H53.9294V15.6239H63.2565ZM63.2565 21.8211H53.9294V19.1581H63.2565C64.4466 19.1581 65.4675 18.7333 66.3193 17.8805C67.1681 17.0308 67.5955 16.0087 67.5955 14.8142C67.5955 13.6228 67.1712 12.6038 66.3193 11.7602C65.4706 10.9167 64.4496 10.4949 63.2565 10.4949H60.9255C59.966 10.4949 59.145 10.1532 58.4623 9.46976C57.7796 8.78631 57.4382 7.96433 57.4382 7.0038C57.4382 6.05868 57.7796 5.24285 58.4623 4.5594C59.145 3.89134 59.966 3.54962 60.9255 3.53423H69.3515V6.17258H60.9255C60.6918 6.17258 60.498 6.25263 60.3381 6.41271C60.1782 6.5728 60.0983 6.76983 60.0983 7.00073C60.0983 7.2347 60.1782 7.42865 60.3381 7.58874C60.498 7.74882 60.6948 7.82887 60.9255 7.82887H63.2565C65.1754 7.82887 66.8206 8.51232 68.1921 9.87921C69.5637 11.2461 70.2525 12.8901 70.2525 14.8111C70.2525 16.7599 69.5667 18.4131 68.1921 19.7738C66.8206 21.1407 65.1754 21.8211 63.2565 21.8211Z" fill="white"/>
<path d="M52.5241 15.6239V18.2869H43.1971C42.2376 18.2869 41.4165 17.9451 40.7338 17.2617C40.0511 16.5782 39.7098 15.7562 39.7098 14.7957C39.7098 13.8506 40.0511 13.0409 40.7338 12.3636C41.4165 11.6863 42.2376 11.3508 43.1971 11.3508L45.528 11.3292C46.7212 11.3292 47.7391 10.9044 48.5909 10.0516C49.4397 9.20192 49.8671 8.17983 49.8671 6.98533C49.8671 5.79392 49.4427 4.7749 48.5909 3.93137C47.7422 3.08783 46.7212 2.66606 45.528 2.66606H37.102V0.00307846H45.528C47.4593 0.00307846 49.1106 0.686527 50.476 2.05342C51.8414 3.42032 52.5241 5.06429 52.5241 6.98533C52.5241 8.93408 51.8414 10.5873 50.476 11.948C49.1106 13.3088 47.4623 13.9891 45.528 13.9891H43.1971C42.9633 13.9891 42.7696 14.0692 42.6097 14.2293C42.4498 14.3894 42.3698 14.5771 42.3698 14.7957C42.3698 15.0297 42.4498 15.2237 42.6097 15.3837C42.7696 15.5438 42.9664 15.6239 43.1971 15.6239H52.5241ZM38.2614 19.78C36.8899 18.4192 36.201 16.766 36.201 14.8173C36.201 12.8962 36.8868 11.2553 38.2614 9.88537C39.6329 8.51847 41.2812 7.83502 43.1971 7.83502H45.528C45.7618 7.83502 45.9555 7.75498 46.1154 7.59489C46.2753 7.43481 46.3553 7.23778 46.3553 7.00688C46.3553 6.77291 46.2753 6.57896 46.1154 6.41887C45.9555 6.25878 45.7587 6.17874 45.528 6.17874H37.102V3.54038H45.528C46.4875 3.55578 47.3086 3.8975 47.9913 4.56556C48.6739 5.249 49.0153 6.06483 49.0153 7.00996C49.0153 7.97048 48.6739 8.79247 47.9913 9.47592C47.3086 10.1594 46.4875 10.5011 45.528 10.5011H43.1971C42.007 10.5011 40.986 10.9229 40.1342 11.7664C39.2854 12.6099 38.858 13.6289 38.858 14.8204C38.858 16.0118 39.2823 17.0339 40.1342 17.8866C40.9829 18.7363 42.0039 19.1643 43.1971 19.1643H52.5241V21.8272H43.1971C41.2781 21.8211 39.6329 21.1407 38.2614 19.78Z" fill="white"/>
<path d="M16.3231 15.6239V18.2869H6.99604C6.03658 18.2869 5.21551 17.9451 4.53282 17.2617C3.85013 16.5782 3.50878 15.7562 3.50878 14.7957C3.50878 13.8506 3.85013 13.0409 4.53282 12.3636C5.21551 11.6863 6.03658 11.3508 6.99604 11.3508L9.32702 11.3292C10.5202 11.3292 11.5381 10.9044 12.3899 10.0516C13.2387 9.20192 13.6661 8.17983 13.6661 6.98533C13.6661 5.79392 13.2417 4.7749 12.3899 3.93137C11.5412 3.08783 10.5202 2.66606 9.32702 2.66606H0.901028V0.00307846H9.32702C11.2582 0.00307846 12.9096 0.686527 14.275 2.05342C15.6404 3.42032 16.3231 5.06429 16.3231 6.98533C16.3231 8.93408 15.6404 10.5873 14.275 11.948C12.9096 13.3088 11.2613 13.9891 9.32702 13.9891H6.99604C6.76232 13.9891 6.56859 14.0692 6.40868 14.2293C6.24877 14.3894 6.16881 14.5771 6.16881 14.7957C6.16881 15.0297 6.24877 15.2237 6.40868 15.3837C6.56859 15.5438 6.7654 15.6239 6.99604 15.6239H16.3231ZM2.06037 19.78C0.685765 18.4192 0 16.766 0 14.8173C0 12.8962 0.685765 11.2553 2.06037 9.88537C3.4319 8.51847 5.0802 7.83502 6.99604 7.83502H9.32702C9.56074 7.83502 9.75447 7.75498 9.91438 7.59489C10.0743 7.43481 10.1542 7.23778 10.1542 7.00688C10.1542 6.77291 10.0743 6.57896 9.91438 6.41887C9.75447 6.25878 9.55766 6.17874 9.32702 6.17874H0.901028V3.54038H9.32702C10.2865 3.55578 11.1076 3.8975 11.7902 4.56556C12.4729 5.249 12.8143 6.06483 12.8143 7.00996C12.8143 7.97048 12.4729 8.79247 11.7902 9.47592C11.1076 10.1594 10.2865 10.5011 9.32702 10.5011H6.99604C5.80594 10.5011 4.78498 10.9229 3.93316 11.7664C3.08441 12.6099 2.65696 13.6289 2.65696 14.8204C2.65696 16.0118 3.08133 17.0339 3.93316 17.8866C4.78191 18.7363 5.80287 19.1643 6.99604 19.1643H16.3231V21.8272H6.99604C5.07712 21.8211 3.4319 21.1407 2.06037 19.78Z" fill="white"/>
</svg>
